<svg width="83" height="83" viewBox="0 0 83 83" fill="none" xmlns="http://www.w3.org/2000/svg">
<circle cx="41.5" cy="41.5" r="41.5" fill="#6DC24B" fill-opacity="0.1"/>
<path d="M42.0001 33.6667C40.895 33.6667 39.8352 34.1057 39.0538 34.8871C38.2724 35.6685 37.8334 36.7283 37.8334 37.8333C37.8378 38.5605 38.0324 39.2738 38.3979 39.9024C38.7634 40.5311 39.287 41.0531 39.9168 41.4167V48.25C39.9168 48.8025 40.1363 49.3324 40.527 49.7231C40.9177 50.1138 41.4476 50.3333 42.0001 50.3333C42.5526 50.3333 43.0825 50.1138 43.4732 49.7231C43.8639 49.3324 44.0834 48.8025 44.0834 48.25V41.4167C44.7132 41.0531 45.2368 40.5311 45.6023 39.9024C45.9678 39.2738 46.1624 38.5605 46.1668 37.8333C46.1668 36.7283 45.7278 35.6685 44.9464 34.8871C44.165 34.1057 43.1052 33.6667 42.0001 33.6667V33.6667ZM42.0001 21.1667C37.8796 21.1667 33.8517 22.3885 30.4257 24.6777C26.9997 26.9669 24.3294 30.2206 22.7526 34.0274C21.1758 37.8342 20.7632 42.0231 21.5671 46.0644C22.3709 50.1057 24.3551 53.8178 27.2687 56.7314C30.1823 59.645 33.8944 61.6292 37.9357 62.433C41.977 63.2369 46.1659 62.8243 49.9727 61.2475C53.7795 59.6707 57.0332 57.0004 59.3224 53.5744C61.6116 50.1484 62.8334 46.1204 62.8334 42C62.8334 39.2641 62.2946 36.555 61.2476 34.0274C60.2006 31.4998 58.666 29.2032 56.7315 27.2686C54.7969 25.3341 52.5003 23.7995 49.9727 22.7525C47.445 21.7055 44.736 21.1667 42.0001 21.1667V21.1667ZM42.0001 58.6667C38.7037 58.6667 35.4814 57.6892 32.7406 55.8578C29.9998 54.0265 27.8636 51.4235 26.6021 48.3781C25.3406 45.3326 25.0106 41.9815 25.6537 38.7485C26.2968 35.5155 27.8841 32.5458 30.215 30.2149C32.5459 27.884 35.5156 26.2967 38.7486 25.6536C41.9816 25.0105 45.3327 25.3406 48.3781 26.602C51.4236 27.8635 54.0266 29.9997 55.8579 32.7405C57.6893 35.4813 58.6668 38.7036 58.6668 42C58.6668 46.4203 56.9108 50.6595 53.7852 53.7851C50.6596 56.9107 46.4204 58.6667 42.0001 58.6667V58.6667Z" fill="#6DC24B"/>
</svg>
